<svg xmlns="http://www.w3.org/2000/svg" xmlns:xlink="http://www.w3.org/1999/xlink" contentStyleType="text/css" data-diagram-type="SEQUENCE" height="734px" preserveAspectRatio="none" style="width:891px;height:734px;background:#FFFFFF;" version="1.1" viewBox="0 0 891 734" width="891px" zoomAndPan="magnify"><defs/><g><line style="stroke:#181818;stroke-width:0.5;stroke-dasharray:5.0,5.0;" x1="23" x2="23" y1="81.2969" y2="653.6875"/><line style="stroke:#181818;stroke-width:0.5;stroke-dasharray:5.0,5.0;" x1="195.5059" x2="195.5059" y1="81.2969" y2="653.6875"/><line style="stroke:#181818;stroke-width:0.5;stroke-dasharray:5.0,5.0;" x1="355.5234" x2="355.5234" y1="81.2969" y2="653.6875"/><line style="stroke:#181818;stroke-width:0.5;stroke-dasharray:5.0,5.0;" x1="518.9116" x2="518.9116" y1="81.2969" y2="653.6875"/><line style="stroke:#181818;stroke-width:0.5;stroke-dasharray:5.0,5.0;" x1="815.0317" x2="815.0317" y1="81.2969" y2="653.6875"/><text fill="#000000" font-family="sans-serif" font-size="14" lengthAdjust="spacing" textLength="31.9102" x="5" y="77.9951">User</text><ellipse cx="23.9551" cy="13.5" fill="#E2E2F0" rx="8" ry="8" style="stroke:#181818;stroke-width:0.5;"/><path d="M23.9551,21.5 L23.9551,48.5 M10.9551,29.5 L36.9551,29.5 M23.9551,48.5 L10.9551,63.5 M23.9551,48.5 L36.9551,63.5 " fill="none" style="stroke:#181818;stroke-width:0.5;"/><text fill="#000000" font-family="sans-serif" font-size="14" lengthAdjust="spacing" textLength="31.9102" x="5" y="665.6826">User</text><ellipse cx="23.9551" cy="677.4844" fill="#E2E2F0" rx="8" ry="8" style="stroke:#181818;stroke-width:0.5;"/><path d="M23.9551,685.4844 L23.9551,712.4844 M10.9551,693.4844 L36.9551,693.4844 M23.9551,712.4844 L10.9551,727.4844 M23.9551,712.4844 L36.9551,727.4844 " fill="none" style="stroke:#181818;stroke-width:0.5;"/><rect fill="#E2E2F0" height="30.2969" rx="2.5" ry="2.5" style="stroke:#181818;stroke-width:0.5;" width="98.458" x="146.5059" y="50"/><text fill="#000000" font-family="sans-serif" font-size="14" lengthAdjust="spacing" textLength="84.458" x="153.5059" y="69.9951">ChatService</text><rect fill="#E2E2F0" height="30.2969" rx="2.5" ry="2.5" style="stroke:#181818;stroke-width:0.5;" width="98.458" x="146.5059" y="652.6875"/><text fill="#000000" font-family="sans-serif" font-size="14" lengthAdjust="spacing" textLength="84.458" x="153.5059" y="672.6826">ChatService</text><rect fill="#E2E2F0" height="30.2969" rx="2.5" ry="2.5" style="stroke:#181818;stroke-width:0.5;" width="97.6514" x="307.5234" y="50"/><text fill="#000000" font-family="sans-serif" font-size="14" lengthAdjust="spacing" textLength="83.6514" x="314.5234" y="69.9951">UserService</text><rect fill="#E2E2F0" height="30.2969" rx="2.5" ry="2.5" style="stroke:#181818;stroke-width:0.5;" width="97.6514" x="307.5234" y="652.6875"/><text fill="#000000" font-family="sans-serif" font-size="14" lengthAdjust="spacing" textLength="83.6514" x="314.5234" y="672.6826">UserService</text><rect fill="#E2E2F0" height="30.2969" rx="2.5" ry="2.5" style="stroke:#181818;stroke-width:0.5;" width="80.8008" x="478.9116" y="50"/><text fill="#000000" font-family="sans-serif" font-size="14" lengthAdjust="spacing" textLength="66.8008" x="485.9116" y="69.9951">Database</text><rect fill="#E2E2F0" height="30.2969" rx="2.5" ry="2.5" style="stroke:#181818;stroke-width:0.5;" width="80.8008" x="478.9116" y="652.6875"/><text fill="#000000" font-family="sans-serif" font-size="14" lengthAdjust="spacing" textLength="66.8008" x="485.9116" y="672.6826">Database</text><rect fill="#E2E2F0" height="30.2969" rx="2.5" ry="2.5" style="stroke:#181818;stroke-width:0.5;" width="127.1006" x="752.0317" y="50"/><text fill="#000000" font-family="sans-serif" font-size="14" lengthAdjust="spacing" textLength="113.1006" x="759.0317" y="69.9951">MessageService</text><rect fill="#E2E2F0" height="30.2969" rx="2.5" ry="2.5" style="stroke:#181818;stroke-width:0.5;" width="127.1006" x="752.0317" y="652.6875"/><text fill="#000000" font-family="sans-serif" font-size="14" lengthAdjust="spacing" textLength="113.1006" x="759.0317" y="672.6826">MessageService</text><rect fill="#EEEEEE" height="3" style="stroke:#EEEEEE;stroke-width:1;" width="884.1323" x="0" y="111.8633"/><line style="stroke:#000000;stroke-width:1;" x1="0" x2="884.1323" y1="111.8633" y2="111.8633"/><line style="stroke:#000000;stroke-width:1;" x1="0" x2="884.1323" y1="114.8633" y2="114.8633"/><rect fill="#EEEEEE" height="23.1328" style="stroke:#000000;stroke-width:2;" width="132.9043" x="375.614" y="101.2969"/><text fill="#000000" font-family="sans-serif" font-size="13" font-weight="bold" lengthAdjust="spacing" textLength="114.3784" x="381.614" y="117.3638">Creating a Chat</text><polygon fill="#181818" points="183.7349,151.5625,193.7349,155.5625,183.7349,159.5625,187.7349,155.5625" style="stroke:#181818;stroke-width:1;"/><line style="stroke:#181818;stroke-width:1;" x1="23.9551" x2="189.7349" y1="155.5625" y2="155.5625"/><text fill="#000000" font-family="sans-serif" font-size="13" lengthAdjust="spacing" textLength="139.4834" x="30.9551" y="150.4966">Create Chat (userIds)</text><polygon fill="#181818" points="344.3491,180.6953,354.3491,184.6953,344.3491,188.6953,348.3491,184.6953" style="stroke:#181818;stroke-width:1;"/><line style="stroke:#181818;stroke-width:1;" x1="195.7349" x2="350.3491" y1="184.6953" y2="184.6953"/><text fill="#000000" font-family="sans-serif" font-size="13" lengthAdjust="spacing" textLength="104.7427" x="202.7349" y="179.6294">Validate userIds</text><polygon fill="#181818" points="507.312,209.8281,517.312,213.8281,507.312,217.8281,511.312,213.8281" style="stroke:#181818;stroke-width:1;"/><line style="stroke:#181818;stroke-width:1;" x1="356.3491" x2="513.312" y1="213.8281" y2="213.8281"/><text fill="#000000" font-family="sans-serif" font-size="13" lengthAdjust="spacing" textLength="126.877" x="363.3491" y="208.7622">Check if users exist</text><polygon fill="#181818" points="367.3491,238.9609,357.3491,242.9609,367.3491,246.9609,363.3491,242.9609" style="stroke:#181818;stroke-width:1;"/><line style="stroke:#181818;stroke-width:1;stroke-dasharray:2.0,2.0;" x1="361.3491" x2="518.312" y1="242.9609" y2="242.9609"/><text fill="#000000" font-family="sans-serif" font-size="13" lengthAdjust="spacing" textLength="138.9629" x="373.3491" y="237.895">User validation result</text><polygon fill="#181818" points="206.7349,268.0938,196.7349,272.0938,206.7349,276.0938,202.7349,272.0938" style="stroke:#181818;stroke-width:1;"/><line style="stroke:#181818;stroke-width:1;stroke-dasharray:2.0,2.0;" x1="200.7349" x2="355.3491" y1="272.0938" y2="272.0938"/><text fill="#000000" font-family="sans-serif" font-size="13" lengthAdjust="spacing" textLength="136.6143" x="212.7349" y="267.0278">Validation successful</text><polygon fill="#181818" points="507.312,297.2266,517.312,301.2266,507.312,305.2266,511.312,301.2266" style="stroke:#181818;stroke-width:1;"/><line style="stroke:#181818;stroke-width:1;" x1="195.7349" x2="513.312" y1="301.2266" y2="301.2266"/><text fill="#000000" font-family="sans-serif" font-size="13" lengthAdjust="spacing" textLength="177.6963" x="202.7349" y="296.1606">Save chat with participants</text><polygon fill="#181818" points="206.7349,326.3594,196.7349,330.3594,206.7349,334.3594,202.7349,330.3594" style="stroke:#181818;stroke-width:1;"/><line style="stroke:#181818;stroke-width:1;stroke-dasharray:2.0,2.0;" x1="200.7349" x2="518.312" y1="330.3594" y2="330.3594"/><text fill="#000000" font-family="sans-serif" font-size="13" lengthAdjust="spacing" textLength="73.1948" x="212.7349" y="325.2935">Chat saved</text><polygon fill="#181818" points="34.9551,355.4922,24.9551,359.4922,34.9551,363.4922,30.9551,359.4922" style="stroke:#181818;stroke-width:1;"/><line style="stroke:#181818;stroke-width:1;stroke-dasharray:2.0,2.0;" x1="28.9551" x2="194.7349" y1="359.4922" y2="359.4922"/><text fill="#000000" font-family="sans-serif" font-size="13" lengthAdjust="spacing" textLength="147.7798" x="40.9551" y="354.4263">Chat created response</text><rect fill="#EEEEEE" height="3" style="stroke:#EEEEEE;stroke-width:1;" width="884.1323" x="0" y="388.0586"/><line style="stroke:#000000;stroke-width:1;" x1="0" x2="884.1323" y1="388.0586" y2="388.0586"/><line style="stroke:#000000;stroke-width:1;" x1="0" x2="884.1323" y1="391.0586" y2="391.0586"/><rect fill="#EEEEEE" height="23.1328" style="stroke:#000000;stroke-width:2;" width="160.231" x="361.9507" y="377.4922"/><text fill="#000000" font-family="sans-serif" font-size="13" font-weight="bold" lengthAdjust="spacing" textLength="141.7051" x="367.9507" y="393.5591">Sending a Message</text><polygon fill="#181818" points="803.582,427.7578,813.582,431.7578,803.582,435.7578,807.582,431.7578" style="stroke:#181818;stroke-width:1;"/><line style="stroke:#181818;stroke-width:1;" x1="23.9551" x2="809.582" y1="431.7578" y2="431.7578"/><text fill="#000000" font-family="sans-serif" font-size="13" lengthAdjust="spacing" textLength="273.1016" x="30.9551" y="426.6919">Send message (senderId, chatId, content)</text><polygon fill="#181818" points="206.7349,456.8906,196.7349,460.8906,206.7349,464.8906,202.7349,460.8906" style="stroke:#181818;stroke-width:1;"/><line style="stroke:#181818;stroke-width:1;" x1="200.7349" x2="814.582" y1="460.8906" y2="460.8906"/><text fill="#000000" font-family="sans-serif" font-size="13" lengthAdjust="spacing" textLength="187.478" x="212.7349" y="455.8247">Validate chatId and senderId</text><polygon fill="#181818" points="507.312,486.0234,517.312,490.0234,507.312,494.0234,511.312,490.0234" style="stroke:#181818;stroke-width:1;"/><line style="stroke:#181818;stroke-width:1;" x1="195.7349" x2="513.312" y1="490.0234" y2="490.0234"/><text fill="#000000" font-family="sans-serif" font-size="13" lengthAdjust="spacing" textLength="289.3833" x="202.7349" y="484.9575">Check if chat exists and user is a participant</text><polygon fill="#181818" points="206.7349,515.1563,196.7349,519.1563,206.7349,523.1563,202.7349,519.1563" style="stroke:#181818;stroke-width:1;"/><line style="stroke:#181818;stroke-width:1;stroke-dasharray:2.0,2.0;" x1="200.7349" x2="518.312" y1="519.1563" y2="519.1563"/><text fill="#000000" font-family="sans-serif" font-size="13" lengthAdjust="spacing" textLength="106.3994" x="212.7349" y="514.0903">Validation result</text><polygon fill="#181818" points="803.582,544.2891,813.582,548.2891,803.582,552.2891,807.582,548.2891" style="stroke:#181818;stroke-width:1;"/><line style="stroke:#181818;stroke-width:1;stroke-dasharray:2.0,2.0;" x1="195.7349" x2="809.582" y1="548.2891" y2="548.2891"/><text fill="#000000" font-family="sans-serif" font-size="13" lengthAdjust="spacing" textLength="136.6143" x="202.7349" y="543.2231">Validation successful</text><polygon fill="#181818" points="530.312,573.4219,520.312,577.4219,530.312,581.4219,526.312,577.4219" style="stroke:#181818;stroke-width:1;"/><line style="stroke:#181818;stroke-width:1;" x1="524.312" x2="814.582" y1="577.4219" y2="577.4219"/><text fill="#000000" font-family="sans-serif" font-size="13" lengthAdjust="spacing" textLength="272.27" x="536.312" y="572.356">Save message (senderId, chatId, content)</text><polygon fill="#181818" points="803.582,602.5547,813.582,606.5547,803.582,610.5547,807.582,606.5547" style="stroke:#181818;stroke-width:1;"/><line style="stroke:#181818;stroke-width:1;stroke-dasharray:2.0,2.0;" x1="519.312" x2="809.582" y1="606.5547" y2="606.5547"/><text fill="#000000" font-family="sans-serif" font-size="13" lengthAdjust="spacing" textLength="99.7915" x="526.312" y="601.4888">Message saved</text><polygon fill="#181818" points="34.9551,631.6875,24.9551,635.6875,34.9551,639.6875,30.9551,635.6875" style="stroke:#181818;stroke-width:1;"/><line style="stroke:#181818;stroke-width:1;stroke-dasharray:2.0,2.0;" x1="28.9551" x2="814.582" y1="635.6875" y2="635.6875"/><text fill="#000000" font-family="sans-serif" font-size="13" lengthAdjust="spacing" textLength="152.6802" x="40.9551" y="630.6216">Message sent response</text><!--SRC=[ZP7DReCm48JlVeez9bBp0f7e9Rtqq1CgzwtP1AlK8A-XVVpw1uZj95LFW9cT7S-7qWu6tfcC6D5O9TM8siAfGrkJcPMaxDmBxvs_eCKFvFpmZPZnGgjUL1MS3A5L-W8OLa1L2My9X-TqvJ7gA6fsarEyjhmNYSHF966Eq62lMZ-pg4NorulNXCwx8_a9wXoK3FIZs8hrDnnAuv1lZkvgq628fzxczcNyvYhdIKhNmtdgo_ZNH3NE1DBVzLlP3f8EEG-MT-G7s8sskVDoWKKWGvEjZpqEcYE6cdGRAIoCKX0vjcCGmzUYsx7xyWK_XS3XEMXBskv5FWWFIg5b4D3PhcwFkzbeXNu2B0wZdXuezvxszKTTpGt2ihNoulSftjwo0FcVghAOvTwLIMHRxjlmRZBdkE7z1G00]--></g></svg>