<svg xmlns="http://www.w3.org/2000/svg" xmlns:xlink="http://www.w3.org/1999/xlink" contentStyleType="text/css" data-diagram-type="DESCRIPTION" height="604px" preserveAspectRatio="none" style="width:1184px;height:604px;background:#003153;" version="1.1" viewBox="0 0 1184 604" width="1184px" zoomAndPan="magnify"><title>Messenger Application - Module Structure</title><defs/><g><rect fill="#003153" height="604" style="stroke:none;stroke-width:1;" width="1184" x="0" y="0"/><text fill="#D9D3D0" font-family="Verdana" font-size="22" font-weight="bold" lengthAdjust="spacing" textLength="523.9395" x="325.923" y="35.4209">Messenger Application - Module Structure</text><!--entity Auth--><g id="elem_Auth"><rect fill="#003153" height="46.2969" rx="2.5" ry="2.5" style="stroke:#D9D3D0;stroke-width:1;" width="72.8125" x="61.69" y="181.8994"/><rect fill="#003153" height="10" style="stroke:#D9D3D0;stroke-width:1;" width="15" x="114.5025" y="186.8994"/><rect fill="#003153" height="2" style="stroke:#D9D3D0;stroke-width:1;" width="4" x="112.5025" y="188.8994"/><rect fill="#003153" height="2" style="stroke:#D9D3D0;stroke-width:1;" width="4" x="112.5025" y="192.8994"/><text fill="#D9D3D0" font-family="Verdana" font-size="14" lengthAdjust="spacing" textLength="32.8125" x="76.69" y="214.8945">Auth</text></g><!--entity User--><g id="elem_User"><rect fill="#003153" height="46.2969" rx="2.5" ry="2.5" style="stroke:#D9D3D0;stroke-width:1;" width="71.9102" x="298.15" y="305.1994"/><rect fill="#003153" height="10" style="stroke:#D9D3D0;stroke-width:1;" width="15" x="350.0602" y="310.1994"/><rect fill="#003153" height="2" style="stroke:#D9D3D0;stroke-width:1;" width="4" x="348.0602" y="312.1994"/><rect fill="#003153" height="2" style="stroke:#D9D3D0;stroke-width:1;" width="4" x="348.0602" y="316.1994"/><text fill="#D9D3D0" font-family="Verdana" font-size="14" lengthAdjust="spacing" textLength="31.9102" x="313.15" y="338.1945">User</text></g><!--entity Messages--><g id="elem_Messages"><rect fill="#003153" height="46.2969" rx="2.5" ry="2.5" style="stroke:#D9D3D0;stroke-width:1;" width="108.6533" x="615.77" y="58.6094"/><rect fill="#003153" height="10" style="stroke:#D9D3D0;stroke-width:1;" width="15" x="704.4233" y="63.6094"/><rect fill="#003153" height="2" style="stroke:#D9D3D0;stroke-width:1;" width="4" x="702.4233" y="65.6094"/><rect fill="#003153" height="2" style="stroke:#D9D3D0;stroke-width:1;" width="4" x="702.4233" y="69.6094"/><text fill="#D9D3D0" font-family="Verdana" font-size="14" lengthAdjust="spacing" textLength="68.6533" x="630.77" y="91.6045">Messages</text></g><!--entity Chat--><g id="elem_Chat"><rect fill="#003153" height="46.2969" rx="2.5" ry="2.5" style="stroke:#D9D3D0;stroke-width:1;" width="72.7168" x="506.74" y="181.8994"/><rect fill="#003153" height="10" style="stroke:#D9D3D0;stroke-width:1;" width="15" x="559.4568" y="186.8994"/><rect fill="#003153" height="2" style="stroke:#D9D3D0;stroke-width:1;" width="4" x="557.4568" y="188.8994"/><rect fill="#003153" height="2" style="stroke:#D9D3D0;stroke-width:1;" width="4" x="557.4568" y="192.8994"/><text fill="#D9D3D0" font-family="Verdana" font-size="14" lengthAdjust="spacing" textLength="32.7168" x="521.74" y="214.8945">Chat</text></g><!--entity Database--><g id="elem_Database"><rect fill="#003153" height="46.2969" rx="2.5" ry="2.5" style="stroke:#D9D3D0;stroke-width:1;" width="106.8008" x="608.7" y="428.4994"/><rect fill="#003153" height="10" style="stroke:#D9D3D0;stroke-width:1;" width="15" x="695.5008" y="433.4994"/><rect fill="#003153" height="2" style="stroke:#D9D3D0;stroke-width:1;" width="4" x="693.5008" y="435.4994"/><rect fill="#003153" height="2" style="stroke:#D9D3D0;stroke-width:1;" width="4" x="693.5008" y="439.4994"/><text fill="#D9D3D0" font-family="Verdana" font-size="14" lengthAdjust="spacing" textLength="66.8008" x="623.7" y="461.4945">Database</text></g><!--entity TypeOrm--><g id="elem_TypeOrm"><rect fill="#003153" height="46.2969" rx="2.5" ry="2.5" style="stroke:#D9D3D0;stroke-width:1;" width="107.1631" x="616.52" y="551.7894"/><rect fill="#003153" height="10" style="stroke:#D9D3D0;stroke-width:1;" width="15" x="703.6831" y="556.7894"/><rect fill="#003153" height="2" style="stroke:#D9D3D0;stroke-width:1;" width="4" x="701.6831" y="558.7894"/><rect fill="#003153" height="2" style="stroke:#D9D3D0;stroke-width:1;" width="4" x="701.6831" y="562.7894"/><text fill="#D9D3D0" font-family="Verdana" font-size="14" lengthAdjust="spacing" textLength="67.1631" x="631.52" y="584.7845">TypeORM</text></g><!--entity Common--><g id="elem_Common"><rect fill="#003153" height="46.2969" rx="2.5" ry="2.5" style="stroke:#D9D3D0;stroke-width:1;" width="103.0547" x="478.57" y="551.7894"/><rect fill="#003153" height="10" style="stroke:#D9D3D0;stroke-width:1;" width="15" x="561.6247" y="556.7894"/><rect fill="#003153" height="2" style="stroke:#D9D3D0;stroke-width:1;" width="4" x="559.6247" y="558.7894"/><rect fill="#003153" height="2" style="stroke:#D9D3D0;stroke-width:1;" width="4" x="559.6247" y="562.7894"/><text fill="#D9D3D0" font-family="Verdana" font-size="14" lengthAdjust="spacing" textLength="63.0547" x="493.57" y="584.7845">Common</text></g><!--entity Healthcheck--><g id="elem_Healthcheck"><rect fill="#003153" height="46.2969" rx="2.5" ry="2.5" style="stroke:#D9D3D0;stroke-width:1;" width="126.96" x="918.62" y="181.8994"/><rect fill="#003153" height="10" style="stroke:#D9D3D0;stroke-width:1;" width="15" x="1025.58" y="186.8994"/><rect fill="#003153" height="2" style="stroke:#D9D3D0;stroke-width:1;" width="4" x="1023.58" y="188.8994"/><rect fill="#003153" height="2" style="stroke:#D9D3D0;stroke-width:1;" width="4" x="1023.58" y="192.8994"/><text fill="#D9D3D0" font-family="Verdana" font-size="14" lengthAdjust="spacing" textLength="86.96" x="933.62" y="214.8945">Healthcheck</text></g><!--link Auth to User--><g id="link_Auth_User"><path d="M110.75,228.4194 C120.48,243.6994 135.25,263.2594 153.1,275.1994 C197.54,304.9294 253.1005,317.1096 291.7505,322.6396 " fill="none" id="Auth-to-User" style="stroke:#D9D3D0;stroke-width:1;"/><polygon fill="#D9D3D0" points="297.69,323.4894,289.3473,318.255,292.7404,322.7812,288.2142,326.1743,297.69,323.4894" style="stroke:#D9D3D0;stroke-width:1;"/><text fill="#D9D3D0" font-family="Verdana" font-size="13" lengthAdjust="spacing" textLength="153.4927" x="154.1" y="271.2663">checks user credentials</text></g><!--link Auth to Database--><g id="link_Auth_Database"><path d="M81.98,228.6294 C55.75,268.3294 11,350.9094 55.1,398.4994 C84.94,430.6994 405.37,424.5594 449.1,428.4994 C503.35,433.3794 559.2956,439.2767 602.3356,443.9867 " fill="none" id="Auth-to-Database" style="stroke:#D9D3D0;stroke-width:1;"/><polygon fill="#D9D3D0" points="608.3,444.6394,599.7885,439.6841,603.3297,444.0955,598.9183,447.6366,608.3,444.6394" style="stroke:#D9D3D0;stroke-width:1;"/><text fill="#D9D3D0" font-family="Verdana" font-size="13" lengthAdjust="spacing" textLength="151.0107" x="45.1" y="332.9163">stores/validates tokens</text></g><!--link Chat to User--><g id="link_Chat_User"><path d="M506.49,215.8594 C467.33,226.7994 408.27,244.7294 389.1,258.1994 C371.66,270.4594 360.2072,284.757 350.3972,299.867 " fill="none" id="Chat-to-User" style="stroke:#D9D3D0;stroke-width:1;"/><polygon fill="#D9D3D0" points="347.13,304.8994,355.3858,299.5289,349.8527,300.7057,348.6759,295.1726,347.13,304.8994" style="stroke:#D9D3D0;stroke-width:1;"/><text fill="#D9D3D0" font-family="Verdana" font-size="13" lengthAdjust="spacing" textLength="126.3247" x="390.1" y="271.2663">checks participants</text></g><!--link Chat to Database--><g id="link_Chat_Database"><path d="M554.42,228.6094 C559.01,237.7794 564.33,248.4794 569.1,258.1994 C599.19,319.4894 631.4779,386.6782 648.7179,422.6682 " fill="none" id="Chat-to-Database" style="stroke:#D9D3D0;stroke-width:1;"/><polygon fill="#D9D3D0" points="651.31,428.0794,651.0293,418.2345,649.1499,423.57,643.8144,421.6906,651.31,428.0794" style="stroke:#D9D3D0;stroke-width:1;"/><text fill="#D9D3D0" font-family="Verdana" font-size="13" lengthAdjust="spacing" textLength="116.6191" x="615.1" y="332.9163">persists chat data</text></g><!--link Messages to User--><g id="link_Messages_User"><path d="M615.34,86.7394 C550.23,94.3994 442.44,116.7494 379.1,181.8994 C346.21,215.7294 337.7602,267.1163 335.3802,298.7463 " fill="none" id="Messages-to-User" style="stroke:#D9D3D0;stroke-width:1;"/><polygon fill="#D9D3D0" points="334.93,304.7294,339.594,296.0549,335.3052,299.7435,331.6166,295.4546,334.93,304.7294" style="stroke:#D9D3D0;stroke-width:1;"/><text fill="#D9D3D0" font-family="Verdana" font-size="13" lengthAdjust="spacing" textLength="108.5068" x="380.1" y="209.6163">identifies sender</text></g><!--link Messages to Chat--><g id="link_Messages_Chat"><path d="M615.53,90.1294 C588.02,96.9094 556.99,109.9194 540.1,134.8994 C530.94,148.4394 531.012,161.2628 534.362,175.7928 " fill="none" id="Messages-to-Chat" style="stroke:#D9D3D0;stroke-width:1;"/><polygon fill="#D9D3D0" points="535.71,181.6394,537.5858,171.9708,534.5867,176.7672,529.7903,173.7681,535.71,181.6394" style="stroke:#D9D3D0;stroke-width:1;"/><text fill="#D9D3D0" font-family="Verdana" font-size="13" lengthAdjust="spacing" textLength="230.9976" x="541.1" y="147.9663">ensures message belongs to a chat</text></g><!--link Messages to Database--><g id="link_Messages_Database"><path d="M724.8,96.4794 C744.46,104.3294 764.61,116.4494 776.1,134.8994 C780.09,141.3194 776.77,144.3794 776.1,151.8994 C768.07,241.6794 777.06,269.2794 740.1,351.4994 C726.9,380.8594 707.2689,404.836 689.4289,423.646 " fill="none" id="Messages-to-Database" style="stroke:#D9D3D0;stroke-width:1;"/><polygon fill="#D9D3D0" points="685.3,427.9994,694.3956,424.2219,688.7408,424.3715,688.5911,418.7167,685.3,427.9994" style="stroke:#D9D3D0;stroke-width:1;"/><text fill="#D9D3D0" font-family="Verdana" font-size="13" lengthAdjust="spacing" textLength="135.9097" x="770.1" y="271.2663">stores message data</text></g><!--link User to Database--><g id="link_User_Database"><path d="M334.3,351.8794 C335.7,367.2194 340.17,386.8094 353.1,398.4994 C389.78,431.6494 524.1394,443.6736 602.4594,448.0636 " fill="none" id="User-to-Database" style="stroke:#D9D3D0;stroke-width:1;"/><polygon fill="#D9D3D0" points="608.45,448.3994,599.688,443.902,603.4578,448.1196,599.2402,451.8894,608.45,448.3994" style="stroke:#D9D3D0;stroke-width:1;"/><text fill="#D9D3D0" font-family="Verdana" font-size="13" lengthAdjust="spacing" textLength="141.1719" x="354.1" y="394.5663">reads/writes user info</text></g><!--link Database to TypeOrm--><g id="link_Database_TypeOrm"><path d="M663.59,475.1794 C665.02,496.9594 666.7962,523.8023 668.2262,545.5423 " fill="none" id="Database-to-TypeOrm" style="stroke:#D9D3D0;stroke-width:1;"/><polygon fill="#D9D3D0" points="668.62,551.5294,672.0207,542.2862,668.2918,546.5402,664.0379,542.8113,668.62,551.5294" style="stroke:#D9D3D0;stroke-width:1;"/><text fill="#D9D3D0" font-family="Verdana" font-size="13" lengthAdjust="spacing" textLength="204.3438" x="668.1" y="517.8563">migrations, repository handling</text></g><!--link Healthcheck to Database--><g id="link_Healthcheck_Database"><path d="M968.41,228.4394 C959.67,242.2694 947.8,260.1894 936.1,275.1994 C913.34,304.3894 855.22,378.4494 824.1,398.4994 C791.19,419.6994 754.7893,431.5498 721.6893,439.3698 " fill="none" id="Healthcheck-to-Database" style="stroke:#D9D3D0;stroke-width:1;stroke-dasharray:7.0,7.0;"/><polygon fill="#D9D3D0" points="715.85,440.7494,725.5286,442.5729,720.716,439.5998,723.6892,434.7872,715.85,440.7494" style="stroke:#D9D3D0;stroke-width:1;"/><text fill="#D9D3D0" font-family="Verdana" font-size="13" lengthAdjust="spacing" textLength="94.8784" x="912.1" y="332.9163">optional check</text></g><!--link Auth to Common--><g id="link_Auth_Common"><path d="M104.75,228.4694 C109.6,242.6494 117.08,260.9194 127.1,275.1994 C224.12,413.3894 268.22,440.2994 416.1,521.7894 C435.92,532.7194 452.979,540.9284 472.739,549.7284 " fill="none" id="Auth-to-Common" style="stroke:#D9D3D0;stroke-width:1;stroke-dasharray:7.0,7.0;"/><polygon fill="#D9D3D0" points="478.22,552.1694,471.6257,544.8539,473.6525,550.1353,468.3711,552.162,478.22,552.1694" style="stroke:#D9D3D0;stroke-width:1;"/><text fill="#D9D3D0" font-family="Verdana" font-size="13" lengthAdjust="spacing" textLength="52.6855" x="230.1" y="394.5663">optional</text></g><!--link Chat to Common--><g id="link_Chat_Common"><path d="M542.31,228.5094 C539.99,294.1894 533.442,479.4131 531.112,545.3131 " fill="none" id="Chat-to-Common" style="stroke:#D9D3D0;stroke-width:1;stroke-dasharray:7.0,7.0;"/><polygon fill="#D9D3D0" points="530.9,551.3094,535.2155,542.4563,531.0767,546.3125,527.2205,542.1737,530.9,551.3094" style="stroke:#D9D3D0;stroke-width:1;"/><text fill="#D9D3D0" font-family="Verdana" font-size="13" lengthAdjust="spacing" textLength="52.6855" x="538.1" y="394.5663">optional</text></g><!--link Messages to Common--><g id="link_Messages_Common"><path d="M724.74,85.8794 C845.23,94.2594 1123.1,122.4294 1123.1,204.0494 C1123.1,204.0494 1123.1,204.0494 1123.1,452.6394 C1123.1,546.9994 689.21,533.3594 599.1,551.7894 C593.43,552.9494 593.3514,552.8045 587.5514,554.4145 " fill="none" id="Messages-to-Common" style="stroke:#D9D3D0;stroke-width:1;stroke-dasharray:7.0,7.0;"/><polygon fill="#D9D3D0" points="581.77,556.0194,591.512,557.4664,586.5878,554.682,589.3722,549.7579,581.77,556.0194" style="stroke:#D9D3D0;stroke-width:1;"/><text fill="#D9D3D0" font-family="Verdana" font-size="13" lengthAdjust="spacing" textLength="52.6855" x="1124.1" y="332.9163">optional</text></g><!--link User to Common--><g id="link_User_Common"><path d="M329.59,351.7994 C327.84,365.8194 327.58,383.9194 334.1,398.4994 C365.6,468.9594 435.7726,519.7665 483.3426,548.2565 " fill="none" id="User-to-Common" style="stroke:#D9D3D0;stroke-width:1;stroke-dasharray:7.0,7.0;"/><polygon fill="#D9D3D0" points="488.49,551.3394,482.8241,543.2835,484.2005,548.7703,478.7136,550.1467,488.49,551.3394" style="stroke:#D9D3D0;stroke-width:1;"/><text fill="#D9D3D0" font-family="Verdana" font-size="13" lengthAdjust="spacing" textLength="52.6855" x="388.1" y="456.2063">optional</text></g><!--link Healthcheck to Common--><g id="link_Healthcheck_Common"><path d="M994.32,228.6794 C1008.32,257.6694 1027.56,309.2394 1013.1,351.4994 C982.1,442.0994 964.74,475.1494 881.1,521.7894 C771.02,583.1794 722.42,525.7294 599.1,551.7894 C593.44,552.9894 593.3555,552.8435 587.5655,554.4735 " fill="none" id="Healthcheck-to-Common" style="stroke:#D9D3D0;stroke-width:1;stroke-dasharray:7.0,7.0;"/><polygon fill="#D9D3D0" points="581.79,556.0994,591.5372,557.5108,586.6029,554.7444,589.3693,549.8102,581.79,556.0994" style="stroke:#D9D3D0;stroke-width:1;"/><text fill="#D9D3D0" font-family="Verdana" font-size="13" lengthAdjust="spacing" textLength="52.6855" x="1003.1" y="394.5663">optional</text></g><!--SRC=[RLDDRzim3BthLt2dRK3ZtdiOK7I7OK0meEsmWx63OjEsK5iI93f5_lr8sagSfJVnw_7naVf40qu8Xt76c9mdOyZHYB37dD7tcE0nnj4rbbpmi8DzQ6SElr2Q6veJ6lCPdi8KWqTF6RuiyVpLr8yp3N_1Pf27gNzdJ6hAmzI2RtlCwYg6gPy6I-gIXwc_Mx87cr5TnJ3rwodYh-UzUlMT9YuDqnJyKgnFK_z0EzBG3DYygNzZ2syX1eFrBHE6dtzUmRA3nrYdlOCvuy8Nkf3WYCbr9-TxQ1AsacV7N1b5sUs-BOaFeF1PQjCsyP9Nvk3SJ25XlZ_QqRMMk1c5D_HPHMK1OB9UT65CDXXisG8pXcWJytJHikeLFEFeE8rZsfQnR6KKuPROjlAIio4LCMMNQUqgMCAdx0YcvGAARdmbhMWYf3gaPX1ZAicEsIfEPSu06qfErUdSYiE7SPMbx1w05U5BomKL3ZW6tujOA_XrrOs-vy8oYtPVvoWIduNJIVWdOBADoCqhrlp_e7aPRRv_JuvAiVDT4FHpqjgX2RvplKwm7gwuF2fwPSxfqc2zPiQVN9zqtVcEUyMG7SzoMcHdYQNHvfmXfd1aDJChai9CAE8i1misHXR2qioJR4jsrVL48KexEyBwGRZ3on3UWMGBo60dqkKcx32XRx1yDFbQ7ldIs_8R17cDNN3NO_iuTjdWn_5b1H_7ReQwIVa7]--></g></svg>