<svg xmlns="http://www.w3.org/2000/svg" xmlns:xlink="http://www.w3.org/1999/xlink" contentStyleType="text/css" data-diagram-type="CLASS" height="795px" preserveAspectRatio="none" style="width:666px;height:795px;background:#FFFFFF;" version="1.1" viewBox="0 0 666 795" width="666px" zoomAndPan="magnify"><defs/><g><!--class user_accounts--><g id="elem_user_accounts"><rect codeLine="1" fill="#F1F1F1" height="162.0781" id="user_accounts" rx="2.5" ry="2.5" style="stroke:#181818;stroke-width:0.5;" width="235.3096" x="206.48" y="7"/><ellipse cx="269.5825" cy="23" fill="#ADD1B2" rx="11" ry="11" style="stroke:#181818;stroke-width:1;"/><path d="M273.6919,29 L265.9732,29 L265.9732,16.6094 L273.6919,16.6094 L273.6919,18.7656 L268.4263,18.7656 L268.4263,21.4375 L273.1919,21.4375 L273.1919,23.5938 L268.4263,23.5938 L268.4263,26.8438 L273.6919,26.8438 L273.6919,29 Z " fill="#000000"/><text fill="#000000" font-family="sans-serif" font-size="14" lengthAdjust="spacing" textLength="100.6045" x="290.0825" y="27.8467">user_accounts</text><line style="stroke:#181818;stroke-width:0.5;" x1="207.48" x2="440.7896" y1="39" y2="39"/><ellipse cx="217.48" cy="52.6484" fill="none" rx="3" ry="3" style="stroke:#038048;stroke-width:1;"/><text fill="#000000" font-family="sans-serif" font-size="14" lengthAdjust="spacing" textLength="101.001" x="226.48" y="55.9951">id : UUID &#171;PK&#187;</text><line style="stroke:#181818;stroke-width:1;" x1="207.48" x2="440.7896" y1="63.2969" y2="63.2969"/><text fill="#000000" font-family="sans-serif" font-size="14" lengthAdjust="spacing" textLength="121.8096" x="212.48" y="80.292">name : VARCHAR</text><text fill="#000000" font-family="sans-serif" font-size="14" lengthAdjust="spacing" textLength="223.3096" x="212.48" y="96.5889">username : VARCHAR &#171;Unique&#187;</text><text fill="#000000" font-family="sans-serif" font-size="14" lengthAdjust="spacing" textLength="191.6797" x="212.48" y="112.8857">email : VARCHAR &#171;Unique&#187;</text><text fill="#000000" font-family="sans-serif" font-size="14" lengthAdjust="spacing" textLength="148.8184" x="212.48" y="129.1826">password : VARCHAR</text><text fill="#000000" font-family="sans-serif" font-size="14" lengthAdjust="spacing" textLength="163.4609" x="212.48" y="145.4795">createdAt : TIMESTAMP</text><text fill="#000000" font-family="sans-serif" font-size="14" lengthAdjust="spacing" textLength="168.041" x="212.48" y="161.7764">updatedAt : TIMESTAMP</text></g><!--class chats--><g id="elem_chats"><rect codeLine="12" fill="#F1F1F1" height="96.8906" id="chats" rx="2.5" ry="2.5" style="stroke:#181818;stroke-width:0.5;" width="180.041" x="46.11" y="468.86"/><ellipse cx="112.9142" cy="484.86" fill="#ADD1B2" rx="11" ry="11" style="stroke:#181818;stroke-width:1;"/><path d="M117.0236,490.86 L109.3048,490.86 L109.3048,478.4694 L117.0236,478.4694 L117.0236,480.6256 L111.7579,480.6256 L111.7579,483.2975 L116.5236,483.2975 L116.5236,485.4537 L111.7579,485.4537 L111.7579,488.7037 L117.0236,488.7037 L117.0236,490.86 Z " fill="#000000"/><text fill="#000000" font-family="sans-serif" font-size="14" lengthAdjust="spacing" textLength="37.9326" x="133.4142" y="489.7067">chats</text><line style="stroke:#181818;stroke-width:0.5;" x1="47.11" x2="225.151" y1="500.86" y2="500.86"/><ellipse cx="57.11" cy="514.5084" fill="none" rx="3" ry="3" style="stroke:#038048;stroke-width:1;"/><text fill="#000000" font-family="sans-serif" font-size="14" lengthAdjust="spacing" textLength="101.001" x="66.11" y="517.8551">id : UUID &#171;PK&#187;</text><line style="stroke:#181818;stroke-width:1;" x1="47.11" x2="225.151" y1="525.1569" y2="525.1569"/><text fill="#000000" font-family="sans-serif" font-size="14" lengthAdjust="spacing" textLength="163.4609" x="52.11" y="542.152">createdAt : TIMESTAMP</text><text fill="#000000" font-family="sans-serif" font-size="14" lengthAdjust="spacing" textLength="168.041" x="52.11" y="558.4489">updatedAt : TIMESTAMP</text></g><!--class chat_users--><g id="elem_chat_users"><rect codeLine="19" fill="#F1F1F1" height="96.8906" id="chat_users" rx="2.5" ry="2.5" style="stroke:#181818;stroke-width:0.5;" width="230.2646" x="7" y="270.52"/><ellipse cx="80.1479" cy="286.52" fill="#ADD1B2" rx="11" ry="11" style="stroke:#181818;stroke-width:1;"/><path d="M84.2573,292.52 L76.5386,292.52 L76.5386,280.1294 L84.2573,280.1294 L84.2573,282.2856 L78.9917,282.2856 L78.9917,284.9575 L83.7573,284.9575 L83.7573,287.1138 L78.9917,287.1138 L78.9917,290.3638 L84.2573,290.3638 L84.2573,292.52 Z " fill="#000000"/><text fill="#000000" font-family="sans-serif" font-size="14" lengthAdjust="spacing" textLength="75.4688" x="100.6479" y="291.3667">chat_users</text><line style="stroke:#181818;stroke-width:0.5;" x1="8" x2="236.2646" y1="302.52" y2="302.52"/><ellipse cx="18" cy="316.1684" fill="none" rx="3" ry="3" style="stroke:#038048;stroke-width:1;"/><text fill="#000000" font-family="sans-serif" font-size="14" lengthAdjust="spacing" textLength="138.25" x="27" y="319.5151">chat_id : UUID &#171;FK&#187;</text><ellipse cx="18" cy="332.4653" fill="none" rx="3" ry="3" style="stroke:#038048;stroke-width:1;"/><text fill="#000000" font-family="sans-serif" font-size="14" lengthAdjust="spacing" textLength="138.1475" x="27" y="335.812">user_id : UUID &#171;FK&#187;</text><line style="stroke:#181818;stroke-width:1;" x1="8" x2="236.2646" y1="343.1138" y2="343.1138"/><text fill="#000000" font-family="sans-serif" font-size="14" lengthAdjust="spacing" textLength="218.2646" x="13" y="360.1089">PRIMARY KEY (chat_id, user_id)</text></g><!--class messages--><g id="elem_messages"><rect codeLine="26" fill="#F1F1F1" height="145.7813" id="messages" rx="2.5" ry="2.5" style="stroke:#181818;stroke-width:0.5;" width="180.041" x="164.11" y="642.75"/><ellipse cx="214.7746" cy="658.75" fill="#ADD1B2" rx="11" ry="11" style="stroke:#181818;stroke-width:1;"/><path d="M218.8839,664.75 L211.1652,664.75 L211.1652,652.3594 L218.8839,652.3594 L218.8839,654.5156 L213.6183,654.5156 L213.6183,657.1875 L218.3839,657.1875 L218.3839,659.3438 L213.6183,659.3438 L213.6183,662.5938 L218.8839,662.5938 L218.8839,664.75 Z " fill="#000000"/><text fill="#000000" font-family="sans-serif" font-size="14" lengthAdjust="spacing" textLength="70.2119" x="235.2746" y="663.5967">messages</text><line style="stroke:#181818;stroke-width:0.5;" x1="165.11" x2="343.151" y1="674.75" y2="674.75"/><ellipse cx="175.11" cy="688.3984" fill="none" rx="3" ry="3" style="stroke:#038048;stroke-width:1;"/><text fill="#000000" font-family="sans-serif" font-size="14" lengthAdjust="spacing" textLength="101.001" x="184.11" y="691.7451">id : UUID &#171;PK&#187;</text><line style="stroke:#181818;stroke-width:1;" x1="165.11" x2="343.151" y1="699.0469" y2="699.0469"/><text fill="#000000" font-family="sans-serif" font-size="14" lengthAdjust="spacing" textLength="102.7578" x="170.11" y="716.042">content : TEXT</text><text fill="#000000" font-family="sans-serif" font-size="14" lengthAdjust="spacing" textLength="163.4609" x="170.11" y="732.3389">createdAt : TIMESTAMP</text><text fill="#000000" font-family="sans-serif" font-size="14" lengthAdjust="spacing" textLength="168.041" x="170.11" y="748.6357">updatedAt : TIMESTAMP</text><text fill="#000000" font-family="sans-serif" font-size="14" lengthAdjust="spacing" textLength="155.6475" x="170.11" y="764.9326">sender_id : UUID &#171;FK&#187;</text><text fill="#000000" font-family="sans-serif" font-size="14" lengthAdjust="spacing" textLength="138.25" x="170.11" y="781.2295">chat_id : UUID &#171;FK&#187;</text></g><!--class refresh_tokens--><g id="elem_refresh_tokens"><rect codeLine="36" fill="#F1F1F1" height="145.7813" id="refresh_tokens" rx="2.5" ry="2.5" style="stroke:#181818;stroke-width:0.5;" width="180.041" x="343.11" y="246.08"/><ellipse cx="378.0291" cy="262.08" fill="#ADD1B2" rx="11" ry="11" style="stroke:#181818;stroke-width:1;"/><path d="M382.1385,268.08 L374.4197,268.08 L374.4197,255.6894 L382.1385,255.6894 L382.1385,257.8456 L376.8728,257.8456 L376.8728,260.5175 L381.6385,260.5175 L381.6385,262.6737 L376.8728,262.6737 L376.8728,265.9237 L382.1385,265.9237 L382.1385,268.08 Z " fill="#000000"/><text fill="#000000" font-family="sans-serif" font-size="14" lengthAdjust="spacing" textLength="103.7764" x="396.4556" y="266.9267">refresh_tokens</text><line style="stroke:#181818;stroke-width:0.5;" x1="344.11" x2="522.151" y1="278.08" y2="278.08"/><ellipse cx="354.11" cy="291.7284" fill="none" rx="3" ry="3" style="stroke:#038048;stroke-width:1;"/><text fill="#000000" font-family="sans-serif" font-size="14" lengthAdjust="spacing" textLength="101.001" x="363.11" y="295.0751">id : UUID &#171;PK&#187;</text><line style="stroke:#181818;stroke-width:1;" x1="344.11" x2="522.151" y1="302.3769" y2="302.3769"/><text fill="#000000" font-family="sans-serif" font-size="14" lengthAdjust="spacing" textLength="88.8057" x="349.11" y="319.372">token : TEXT</text><text fill="#000000" font-family="sans-serif" font-size="14" lengthAdjust="spacing" textLength="163.4609" x="349.11" y="335.6689">createdAt : TIMESTAMP</text><text fill="#000000" font-family="sans-serif" font-size="14" lengthAdjust="spacing" textLength="168.041" x="349.11" y="351.9657">updatedAt : TIMESTAMP</text><text fill="#000000" font-family="sans-serif" font-size="14" lengthAdjust="spacing" textLength="161.1641" x="349.11" y="368.2626">expiresAt : TIMESTAMP</text><text fill="#000000" font-family="sans-serif" font-size="14" lengthAdjust="spacing" textLength="131.3867" x="349.11" y="384.5595">userId : UUID &#171;FK&#187;</text></g><!--class migrations--><g id="elem_migrations"><rect codeLine="46" fill="#F1F1F1" height="96.8906" id="migrations" rx="2.5" ry="2.5" style="stroke:#181818;stroke-width:0.5;" width="182.2764" x="476.99" y="39.59"/><ellipse cx="526.448" cy="55.59" fill="#ADD1B2" rx="11" ry="11" style="stroke:#181818;stroke-width:1;"/><path d="M530.5574,61.59 L522.8386,61.59 L522.8386,49.1994 L530.5574,49.1994 L530.5574,51.3556 L525.2918,51.3556 L525.2918,54.0275 L530.0574,54.0275 L530.0574,56.1837 L525.2918,56.1837 L525.2918,59.4337 L530.5574,59.4337 L530.5574,61.59 Z " fill="#000000"/><text fill="#000000" font-family="sans-serif" font-size="14" lengthAdjust="spacing" textLength="74.8604" x="546.948" y="60.4367">migrations</text><line style="stroke:#181818;stroke-width:0.5;" x1="477.99" x2="658.2664" y1="71.59" y2="71.59"/><ellipse cx="487.99" cy="85.2384" fill="none" rx="3" ry="3" style="stroke:#038048;stroke-width:1;"/><text fill="#000000" font-family="sans-serif" font-size="14" lengthAdjust="spacing" textLength="101.001" x="496.99" y="88.5851">id : UUID &#171;PK&#187;</text><line style="stroke:#181818;stroke-width:1;" x1="477.99" x2="658.2664" y1="95.8869" y2="95.8869"/><text fill="#000000" font-family="sans-serif" font-size="14" lengthAdjust="spacing" textLength="170.2764" x="482.99" y="112.882">timestamp : TIMESTAMP</text><text fill="#000000" font-family="sans-serif" font-size="14" lengthAdjust="spacing" textLength="121.8096" x="482.99" y="129.1789">name : VARCHAR</text></g><!--link user_accounts to chat_users--><g id="link_user_accounts_chat_users"><path codeLine="54" d="M199.4696,145.7908 C175.7696,161.2508 160.01,175.99 144.13,199.08 C129.92,219.74 125.786,229.0918 123.706,252.3118 " fill="none" id="user_accounts-chat_users" style="stroke:#181818;stroke-width:1;"/><line style="stroke:#181818;stroke-width:1;" x1="200.6344" x2="205.0052" y1="140.2552" y2="146.9556"/><line style="stroke:#181818;stroke-width:1;" x1="198.1217" x2="202.4925" y1="141.8943" y2="148.5947"/><line style="stroke:#181818;stroke-width:1;" x1="199.4696" x2="206.17" y1="145.7908" y2="141.42"/><line style="stroke:#181818;stroke-width:1;" x1="122.8138" x2="128.0761" y1="262.2719" y2="270.7753"/><line style="stroke:#181818;stroke-width:1;" x1="122.8138" x2="116.1239" y1="262.2719" y2="269.7047"/><line style="stroke:#181818;stroke-width:1;" x1="122.8138" x2="122.1" y1="262.2719" y2="270.24"/><ellipse cx="123.3491" cy="256.2958" fill="none" rx="4" ry="4" style="stroke:#181818;stroke-width:1;"/><text fill="#000000" font-family="sans-serif" font-size="13" lengthAdjust="spacing" textLength="22.9785" x="145.13" y="212.1469">has</text></g><!--link chat_users to user_accounts--><g id="link_chat_users_user_accounts"><path codeLine="64" d="M169.0622,255.9139 C186.1222,233.8239 196.12,221.78 216.13,199.08 C224.72,189.34 228.4323,185.1517 237.7123,175.3417 " fill="none" id="chat_users-user_accounts" style="stroke:#181818;stroke-width:1;"/><line style="stroke:#181818;stroke-width:1;" x1="162.9499" x2="162.8087" y1="263.8284" y2="273.8274"/><line style="stroke:#181818;stroke-width:1;" x1="162.9499" x2="153.3113" y1="263.8284" y2="266.4926"/><line style="stroke:#181818;stroke-width:1;" x1="162.9499" x2="158.06" y1="263.8284" y2="270.16"/><ellipse cx="166.6173" cy="259.0797" fill="none" rx="4" ry="4" style="stroke:#181818;stroke-width:1;"/><line style="stroke:#181818;stroke-width:1;" x1="237.5553" x2="243.367" y1="169.687" y2="175.1847"/><line style="stroke:#181818;stroke-width:1;" x1="235.4937" x2="241.3054" y1="171.8664" y2="177.3641"/><line style="stroke:#181818;stroke-width:1;" x1="237.7123" x2="243.21" y1="175.3417" y2="169.53"/><text fill="#000000" font-family="sans-serif" font-size="13" lengthAdjust="spacing" textLength="46.7188" x="217.13" y="212.1469">user_id</text></g><!--link user_accounts to messages--><g id="link_user_accounts_messages"><path codeLine="55" d="M314.2307,177.4904 C300.4807,300.4204 277.3516,507.1716 264.1916,624.7816 " fill="none" id="user_accounts-messages" style="stroke:#181818;stroke-width:1;"/><line style="stroke:#181818;stroke-width:1;" x1="310.7002" x2="318.6506" y1="173.0706" y2="173.9598"/><line style="stroke:#181818;stroke-width:1;" x1="310.3667" x2="318.3171" y1="176.052" y2="176.9413"/><line style="stroke:#181818;stroke-width:1;" x1="314.2307" x2="315.12" y1="177.4904" y2="169.54"/><line style="stroke:#181818;stroke-width:1;" x1="263.0796" x2="268.1528" y1="634.7196" y2="643.3372"/><line style="stroke:#181818;stroke-width:1;" x1="263.0796" x2="256.2272" y1="634.7196" y2="642.0028"/><line style="stroke:#181818;stroke-width:1;" x1="263.0796" x2="262.19" y1="634.7196" y2="642.67"/><ellipse cx="263.7468" cy="628.7568" fill="none" rx="4" ry="4" style="stroke:#181818;stroke-width:1;"/><text fill="#000000" font-family="sans-serif" font-size="13" lengthAdjust="spacing" textLength="38.0352" x="288.13" y="434.9269">sends</text></g><!--link messages to user_accounts--><g id="link_messages_user_accounts"><path codeLine="65" d="M358.2579,633.224 C426.7879,574.294 501.95,494.89 541.13,391.86 C564.16,331.3 570.6,303.78 541.13,246.08 C529.34,222.99 493.3162,194.6579 448.8762,165.0279 " fill="none" id="messages-user_accounts" style="stroke:#181818;stroke-width:1;"/><line style="stroke:#181818;stroke-width:1;" x1="350.6757" x2="348.522" y1="639.744" y2="649.5093"/><line style="stroke:#181818;stroke-width:1;" x1="350.6757" x2="340.698" y1="639.744" y2="640.4107"/><line style="stroke:#181818;stroke-width:1;" x1="350.6757" x2="344.61" y1="639.744" y2="644.96"/><ellipse cx="355.225" cy="635.832" fill="none" rx="4" ry="4" style="stroke:#181818;stroke-width:1;"/><line style="stroke:#181818;stroke-width:1;" x1="443.3291" x2="447.7671" y1="166.1371" y2="159.4809"/><line style="stroke:#181818;stroke-width:1;" x1="445.8252" x2="450.2631" y1="167.8013" y2="161.1451"/><line style="stroke:#181818;stroke-width:1;" x1="448.8762" x2="442.22" y1="165.0279" y2="160.59"/><text fill="#000000" font-family="sans-serif" font-size="13" lengthAdjust="spacing" textLength="62.9688" x="527.13" y="434.9269">sender_id</text></g><!--link user_accounts to refresh_tokens--><g id="link_user_accounts_refresh_tokens"><path codeLine="56" d="M336.3393,177.338 C340.0693,193.218 343.28,201.63 350.13,216.08 C354.92,226.18 350.6888,221.3405 357.2588,230.8505 " fill="none" id="user_accounts-refresh_tokens" style="stroke:#181818;stroke-width:1;"/><line style="stroke:#181818;stroke-width:1;" x1="331.5306" x2="339.3187" y1="174.3587" y2="172.5294"/><line style="stroke:#181818;stroke-width:1;" x1="332.2166" x2="340.0047" y1="177.2792" y2="175.4499"/><line style="stroke:#181818;stroke-width:1;" x1="336.3393" x2="334.51" y1="177.338" y2="169.55"/><line style="stroke:#181818;stroke-width:1;" x1="362.9428" x2="372.4265" y1="239.078" y2="242.2496"/><line style="stroke:#181818;stroke-width:1;" x1="362.9428" x2="362.5535" y1="239.078" y2="249.0704"/><line style="stroke:#181818;stroke-width:1;" x1="362.9428" x2="367.49" y1="239.078" y2="245.66"/><ellipse cx="359.5324" cy="234.1415" fill="none" rx="4" ry="4" style="stroke:#181818;stroke-width:1;"/><text fill="#000000" font-family="sans-serif" font-size="13" lengthAdjust="spacing" textLength="33.5981" x="351.13" y="212.1469">owns</text></g><!--link refresh_tokens to user_accounts--><g id="link_refresh_tokens_user_accounts"><path codeLine="67" d="M402.3866,228.9161 C396.4766,213.3061 396.18,213.88 389.13,199.08 C384.51,189.36 383.1708,186.3767 377.7708,176.5767 " fill="none" id="refresh_tokens-user_accounts" style="stroke:#181818;stroke-width:1;"/><line style="stroke:#181818;stroke-width:1;" x1="405.9274" x2="414.3713" y1="238.2683" y2="243.6255"/><line style="stroke:#181818;stroke-width:1;" x1="405.9274" x2="403.1487" y1="238.2683" y2="247.8745"/><line style="stroke:#181818;stroke-width:1;" x1="405.9274" x2="408.76" y1="238.2683" y2="245.75"/><ellipse cx="403.8029" cy="232.657" fill="none" rx="4" ry="4" style="stroke:#181818;stroke-width:1;"/><line style="stroke:#181818;stroke-width:1;" x1="372.3371" x2="379.3438" y1="175.0038" y2="171.1429"/><line style="stroke:#181818;stroke-width:1;" x1="373.7849" x2="380.7916" y1="177.6313" y2="173.7704"/><line style="stroke:#181818;stroke-width:1;" x1="377.7708" x2="373.91" y1="176.5767" y2="169.57"/><text fill="#000000" font-family="sans-serif" font-size="13" lengthAdjust="spacing" textLength="40.4409" x="397.13" y="212.1469">userId</text></g><!--link chats to chat_users--><g id="link_chats_chat_users"><path codeLine="59" d="M132.1619,460.6702 C129.9819,430.0502 128.9974,416.3446 126.8174,385.7046 " fill="none" id="chats-chat_users" style="stroke:#181818;stroke-width:1;"/><line style="stroke:#181818;stroke-width:1;" x1="136.4358" x2="128.456" y1="464.376" y2="464.9442"/><line style="stroke:#181818;stroke-width:1;" x1="136.2228" x2="128.243" y1="461.3836" y2="461.9517"/><line style="stroke:#181818;stroke-width:1;" x1="132.1619" x2="132.73" y1="460.6702" y2="468.65"/><line style="stroke:#181818;stroke-width:1;" x1="126.1078" x2="119.5551" y1="375.7298" y2="368.1758"/><line style="stroke:#181818;stroke-width:1;" x1="126.1078" x2="131.5249" y1="375.7298" y2="367.3242"/><line style="stroke:#181818;stroke-width:1;" x1="126.1078" x2="125.54" y1="375.7298" y2="367.75"/><ellipse cx="126.5336" cy="381.7147" fill="none" rx="4" ry="4" style="stroke:#181818;stroke-width:1;"/><text fill="#000000" font-family="sans-serif" font-size="13" lengthAdjust="spacing" textLength="55.0278" x="132.13" y="434.9269">contains</text></g><!--link chat_users to chats--><g id="link_chat_users_chats"><path codeLine="63" d="M77.2838,383.64 C65.4038,405.17 65.84,415.23 74.13,438.86 C77.78,449.26 78.8671,452.7639 85.3671,461.9739 " fill="none" id="chat_users-chats" style="stroke:#181818;stroke-width:1;"/><line style="stroke:#181818;stroke-width:1;" x1="82.115" x2="80.7267" y1="374.8844" y2="364.9813"/><line style="stroke:#181818;stroke-width:1;" x1="82.115" x2="91.2333" y1="374.8844" y2="370.7787"/><line style="stroke:#181818;stroke-width:1;" x1="82.115" x2="85.98" y1="374.8844" y2="367.88"/><ellipse cx="79.2163" cy="380.1378" fill="none" rx="4" ry="4" style="stroke:#181818;stroke-width:1;"/><line style="stroke:#181818;stroke-width:1;" x1="90.9416" x2="84.4055" y1="462.9355" y2="467.5484"/><line style="stroke:#181818;stroke-width:1;" x1="89.2118" x2="82.6756" y1="460.4844" y2="465.0973"/><line style="stroke:#181818;stroke-width:1;" x1="85.3671" x2="89.98" y1="461.9739" y2="468.51"/><text fill="#000000" font-family="sans-serif" font-size="13" lengthAdjust="spacing" textLength="46.814" x="75.13" y="434.9269">chat_id</text></g><!--link chats to messages--><g id="link_chats_messages"><path codeLine="60" d="M115.9953,573.9554 C112.8053,589.4354 114.08,598.46 121.13,612.75 C130.92,632.57 132.7004,638.1754 149.9404,652.3354 " fill="none" id="chats-messages" style="stroke:#181818;stroke-width:1;"/><line style="stroke:#181818;stroke-width:1;" x1="112.885" x2="120.7204" y1="569.2304" y2="570.845"/><line style="stroke:#181818;stroke-width:1;" x1="112.2795" x2="120.1149" y1="572.1686" y2="573.7833"/><line style="stroke:#181818;stroke-width:1;" x1="115.9953" x2="117.61" y1="573.9554" y2="566.12"/><line style="stroke:#181818;stroke-width:1;" x1="157.6679" x2="167.6582" y1="658.6824" y2="659.1235"/><line style="stroke:#181818;stroke-width:1;" x1="157.6679" x2="160.0418" y1="658.6824" y2="668.3965"/><line style="stroke:#181818;stroke-width:1;" x1="157.6679" x2="163.85" y1="658.6824" y2="663.76"/><ellipse cx="153.0314" cy="654.8742" fill="none" rx="4" ry="4" style="stroke:#181818;stroke-width:1;"/><text fill="#000000" font-family="sans-serif" font-size="13" lengthAdjust="spacing" textLength="53.8726" x="122.13" y="608.8169">includes</text></g><!--link messages to chats--><g id="link_messages_chats"><path codeLine="66" d="M201.4557,626.9932 C186.1557,601.5432 182.7508,595.867 168.9708,572.937 " fill="none" id="messages-chats" style="stroke:#181818;stroke-width:1;"/><line style="stroke:#181818;stroke-width:1;" x1="206.6081" x2="215.8723" y1="635.5636" y2="639.3286"/><line style="stroke:#181818;stroke-width:1;" x1="206.6081" x2="205.5877" y1="635.5636" y2="645.5114"/><line style="stroke:#181818;stroke-width:1;" x1="206.6081" x2="210.73" y1="635.5636" y2="642.42"/><ellipse cx="203.5167" cy="630.4213" fill="none" rx="4" ry="4" style="stroke:#181818;stroke-width:1;"/><line style="stroke:#181818;stroke-width:1;" x1="163.4819" x2="170.3389" y1="571.5689" y2="567.4481"/><line style="stroke:#181818;stroke-width:1;" x1="165.0272" x2="171.8842" y1="574.1403" y2="570.0195"/><line style="stroke:#181818;stroke-width:1;" x1="168.9708" x2="164.85" y1="572.937" y2="566.08"/><text fill="#000000" font-family="sans-serif" font-size="13" lengthAdjust="spacing" textLength="46.814" x="193.13" y="608.8169">chat_id</text></g><!--SRC=[fLJHQi8m57tlLuI-RCFr1qI4iYah8aYdOpv9QEuqQ9CkIN5Y_VSbRNLjJQNClWJkFVUUSv9x2qnHTK1kAa6iS1Jnb2dfegE3zDT3bA0-MYo2LpGOp2R3OHxslFnWE0QT_V33bpS_p4EcIpsiwnQCVgTGraACwQuzdM0fzroGHjz805P0VANZys0wUf_xqrd1c11BvkGuK1gBDhYheJjPLiPzXIgFLVd6PxvUVb7sNAbb5WPJFroYoMY97ijEp-Uofofr35BYDNJro9dIbSR7w7F-Bzic8u6HDWTstnN50hu4oCrAyIsmZhfpxBsguIUXcjbMeoysk24vfck15UMTvLBzB0h7oHLJOsiqnqDjzv20NS6qeObqwhaiypn-H7_JfZkv6onTE-uy6WPbNgmDLtyGW-PxxLHBoxUd8Qc8MQMOwSBKbDP0LHsKHRkKGDvzp0NGDKDRE5WuohOdxdbPXeg6_NBLA74jcBgvVlbNCzYBWZRaPQ2liTVCZVkwnHuGznS0]--></g></svg>