<svg xmlns="http://www.w3.org/2000/svg" xmlns:xlink="http://www.w3.org/1999/xlink" contentStyleType="text/css" data-diagram-type="CLASS" height="398px" preserveAspectRatio="none" style="width:433px;height:398px;background:#FFFFFF;" version="1.1" viewBox="0 0 433 398" width="433px" zoomAndPan="magnify"><defs/><g><!--class UA--><g id="elem_UA"><rect codeLine="1" fill="#F1F1F1" height="162.0781" id="UA" rx="2.5" ry="2.5" style="stroke:#181818;stroke-width:0.5;" width="132.6045" x="7.7557" y="7"/><ellipse cx="22.7557" cy="23" fill="#ADD1B2" rx="11" ry="11" style="stroke:#181818;stroke-width:1;"/><path d="M26.8651,29 L19.1463,29 L19.1463,16.6094 L26.8651,16.6094 L26.8651,18.7656 L21.5994,18.7656 L21.5994,21.4375 L26.3651,21.4375 L26.3651,23.5938 L21.5994,23.5938 L21.5994,26.8438 L26.8651,26.8438 L26.8651,29 Z " fill="#000000"/><text fill="#000000" font-family="sans-serif" font-size="14" lengthAdjust="spacing" textLength="100.6045" x="36.7557" y="27.8467">user_accounts</text><line style="stroke:#181818;stroke-width:0.5;" x1="8.7557" x2="139.3602" y1="39" y2="39"/><ellipse cx="18.7557" cy="52.6484" fill="#000000" rx="3" ry="3" style="stroke:#000000;stroke-width:1;"/><text fill="#000000" font-family="sans-serif" font-size="14" lengthAdjust="spacing" textLength="12.7764" x="27.7557" y="55.9951">id</text><line style="stroke:#181818;stroke-width:1;" x1="8.7557" x2="139.3602" y1="63.2969" y2="63.2969"/><text fill="#000000" font-family="sans-serif" font-size="14" lengthAdjust="spacing" textLength="39.7031" x="13.7557" y="80.292">name</text><text fill="#000000" font-family="sans-serif" font-size="14" lengthAdjust="spacing" textLength="70.2393" x="13.7557" y="96.5889">username</text><text fill="#000000" font-family="sans-serif" font-size="14" lengthAdjust="spacing" textLength="38.6094" x="13.7557" y="112.8857">email</text><text fill="#000000" font-family="sans-serif" font-size="14" lengthAdjust="spacing" textLength="66.7119" x="13.7557" y="129.1826">password</text><text fill="#000000" font-family="sans-serif" font-size="14" lengthAdjust="spacing" textLength="68.7012" x="13.7557" y="145.4795">createdAt</text><text fill="#000000" font-family="sans-serif" font-size="14" lengthAdjust="spacing" textLength="73.2813" x="13.7557" y="161.7764">updatedAt</text></g><!--class CU--><g id="elem_CU"><rect codeLine="12" fill="#F1F1F1" height="80.5938" id="CU" rx="2.5" ry="2.5" style="stroke:#181818;stroke-width:0.5;" width="107.4688" x="34.3257" y="278.67"/><ellipse cx="49.3257" cy="294.67" fill="#ADD1B2" rx="11" ry="11" style="stroke:#181818;stroke-width:1;"/><path d="M53.4351,300.67 L45.7163,300.67 L45.7163,288.2794 L53.4351,288.2794 L53.4351,290.4356 L48.1694,290.4356 L48.1694,293.1075 L52.9351,293.1075 L52.9351,295.2638 L48.1694,295.2638 L48.1694,298.5138 L53.4351,298.5138 L53.4351,300.67 Z " fill="#000000"/><text fill="#000000" font-family="sans-serif" font-size="14" lengthAdjust="spacing" textLength="75.4688" x="63.3257" y="299.5167">chat_users</text><line style="stroke:#181818;stroke-width:0.5;" x1="35.3257" x2="140.7944" y1="310.67" y2="310.67"/><ellipse cx="45.3257" cy="324.3184" fill="#000000" rx="3" ry="3" style="stroke:#000000;stroke-width:1;"/><text fill="#000000" font-family="sans-serif" font-size="14" lengthAdjust="spacing" textLength="50.415" x="54.3257" y="327.6651">chat_id</text><ellipse cx="45.3257" cy="340.6153" fill="#000000" rx="3" ry="3" style="stroke:#000000;stroke-width:1;"/><text fill="#000000" font-family="sans-serif" font-size="14" lengthAdjust="spacing" textLength="50.3125" x="54.3257" y="343.962">user_id</text><line style="stroke:#181818;stroke-width:0.5;" x1="35.3257" x2="140.7944" y1="351.2638" y2="351.2638"/></g><!--class CH--><g id="elem_CH"><rect codeLine="17" fill="#F1F1F1" height="96.8906" id="CH" rx="2.5" ry="2.5" style="stroke:#181818;stroke-width:0.5;" width="85.2813" x="199.4157" y="39.59"/><ellipse cx="221.3226" cy="55.59" fill="#ADD1B2" rx="11" ry="11" style="stroke:#181818;stroke-width:1;"/><path d="M225.4319,61.59 L217.7132,61.59 L217.7132,49.1994 L225.4319,49.1994 L225.4319,51.3556 L220.1663,51.3556 L220.1663,54.0275 L224.9319,54.0275 L224.9319,56.1838 L220.1663,56.1838 L220.1663,59.4338 L225.4319,59.4338 L225.4319,61.59 Z " fill="#000000"/><text fill="#000000" font-family="sans-serif" font-size="14" lengthAdjust="spacing" textLength="37.9326" x="236.8574" y="60.4367">chats</text><line style="stroke:#181818;stroke-width:0.5;" x1="200.4157" x2="283.6969" y1="71.59" y2="71.59"/><ellipse cx="210.4157" cy="85.2384" fill="#000000" rx="3" ry="3" style="stroke:#000000;stroke-width:1;"/><text fill="#000000" font-family="sans-serif" font-size="14" lengthAdjust="spacing" textLength="12.7764" x="219.4157" y="88.5851">id</text><line style="stroke:#181818;stroke-width:1;" x1="200.4157" x2="283.6969" y1="95.8869" y2="95.8869"/><text fill="#000000" font-family="sans-serif" font-size="14" lengthAdjust="spacing" textLength="68.7012" x="205.4157" y="112.882">createdAt</text><text fill="#000000" font-family="sans-serif" font-size="14" lengthAdjust="spacing" textLength="73.2813" x="205.4157" y="129.1789">updatedAt</text></g><!--class M--><g id="elem_M"><rect codeLine="24" fill="#F1F1F1" height="145.7813" id="M" rx="2.5" ry="2.5" style="stroke:#181818;stroke-width:0.5;" width="102.2119" x="211.9557" y="246.08"/><ellipse cx="226.9557" cy="262.08" fill="#ADD1B2" rx="11" ry="11" style="stroke:#181818;stroke-width:1;"/><path d="M231.0651,268.08 L223.3463,268.08 L223.3463,255.6894 L231.0651,255.6894 L231.0651,257.8456 L225.7994,257.8456 L225.7994,260.5175 L230.5651,260.5175 L230.5651,262.6738 L225.7994,262.6738 L225.7994,265.9238 L231.0651,265.9238 L231.0651,268.08 Z " fill="#000000"/><text fill="#000000" font-family="sans-serif" font-size="14" lengthAdjust="spacing" textLength="70.2119" x="240.9557" y="266.9267">messages</text><line style="stroke:#181818;stroke-width:0.5;" x1="212.9557" x2="313.1676" y1="278.08" y2="278.08"/><ellipse cx="222.9557" cy="291.7284" fill="#000000" rx="3" ry="3" style="stroke:#000000;stroke-width:1;"/><text fill="#000000" font-family="sans-serif" font-size="14" lengthAdjust="spacing" textLength="12.7764" x="231.9557" y="295.0751">id</text><line style="stroke:#181818;stroke-width:1;" x1="212.9557" x2="313.1676" y1="302.3769" y2="302.3769"/><text fill="#000000" font-family="sans-serif" font-size="14" lengthAdjust="spacing" textLength="53.6006" x="217.9557" y="319.372">content</text><text fill="#000000" font-family="sans-serif" font-size="14" lengthAdjust="spacing" textLength="67.8125" x="217.9557" y="335.6689">sender_id</text><text fill="#000000" font-family="sans-serif" font-size="14" lengthAdjust="spacing" textLength="50.415" x="217.9557" y="351.9657">chat_id</text><text fill="#000000" font-family="sans-serif" font-size="14" lengthAdjust="spacing" textLength="68.7012" x="217.9557" y="368.2626">createdAt</text><text fill="#000000" font-family="sans-serif" font-size="14" lengthAdjust="spacing" textLength="73.2813" x="217.9557" y="384.5595">updatedAt</text></g><!--class MG--><g id="elem_MG"><rect codeLine="34" fill="#F1F1F1" height="96.8906" id="MG" rx="2.5" ry="2.5" style="stroke:#181818;stroke-width:0.5;" width="106.8604" x="319.6257" y="39.59"/><ellipse cx="334.6257" cy="55.59" fill="#ADD1B2" rx="11" ry="11" style="stroke:#181818;stroke-width:1;"/><path d="M338.7351,61.59 L331.0163,61.59 L331.0163,49.1994 L338.7351,49.1994 L338.7351,51.3556 L333.4694,51.3556 L333.4694,54.0275 L338.2351,54.0275 L338.2351,56.1838 L333.4694,56.1838 L333.4694,59.4338 L338.7351,59.4338 L338.7351,61.59 Z " fill="#000000"/><text fill="#000000" font-family="sans-serif" font-size="14" lengthAdjust="spacing" textLength="74.8604" x="348.6257" y="60.4367">migrations</text><line style="stroke:#181818;stroke-width:0.5;" x1="320.6257" x2="425.486" y1="71.59" y2="71.59"/><ellipse cx="330.6257" cy="85.2384" fill="#000000" rx="3" ry="3" style="stroke:#000000;stroke-width:1;"/><text fill="#000000" font-family="sans-serif" font-size="14" lengthAdjust="spacing" textLength="12.7764" x="339.6257" y="88.5851">id</text><line style="stroke:#181818;stroke-width:1;" x1="320.6257" x2="425.486" y1="95.8869" y2="95.8869"/><text fill="#000000" font-family="sans-serif" font-size="14" lengthAdjust="spacing" textLength="75.5166" x="325.6257" y="112.882">timestamp</text><text fill="#000000" font-family="sans-serif" font-size="14" lengthAdjust="spacing" textLength="39.7031" x="325.6257" y="129.1789">name</text></g><!--link UA to CU--><g id="link_UA_CU"><path codeLine="42" d="M11.09,186.5784 C6,201.7784 10.1157,200.68 15.0557,216.08 C22.3757,238.87 31.886,254.6448 46.056,272.3448 " fill="none" id="UA-CU" style="stroke:#181818;stroke-width:1;"/><line style="stroke:#181818;stroke-width:1;" x1="14.2654" x2="11.1162" y1="177.096" y2="167.6048"/><line style="stroke:#181818;stroke-width:1;" x1="14.2654" x2="22.4951" y1="177.096" y2="171.4152"/><line style="stroke:#181818;stroke-width:1;" x1="14.2654" x2="16.8057" y1="177.096" y2="169.51"/><ellipse cx="12.3602" cy="182.7854" fill="none" rx="4" ry="4" style="stroke:#181818;stroke-width:1;"/><line style="stroke:#181818;stroke-width:1;" x1="51.6784" x2="45.4332" y1="272.9675" y2="277.9672"/><line style="stroke:#181818;stroke-width:1;" x1="49.8035" x2="43.5583" y1="270.6256" y2="275.6253"/><line style="stroke:#181818;stroke-width:1;" x1="46.056" x2="51.0557" y1="272.3448" y2="278.59"/><text fill="#000000" font-family="sans-serif" font-size="13" lengthAdjust="spacing" textLength="46.7188" x="16.0557" y="212.1469">user_id</text></g><!--link CH to CU--><g id="link_CH_CU"><path codeLine="43" d="M209.3655,152.8632 C196.4455,177.1632 188.1657,190.89 171.0557,216.08 C156.4457,237.6 143.544,254.0351 128.014,272.4451 " fill="none" id="CH-CU" style="stroke:#181818;stroke-width:1;"/><line style="stroke:#181818;stroke-width:1;" x1="214.06" x2="212.5179" y1="144.0336" y2="134.1533"/><line style="stroke:#181818;stroke-width:1;" x1="214.06" x2="223.1134" y1="144.0336" y2="139.7867"/><line style="stroke:#181818;stroke-width:1;" x1="214.06" x2="217.8157" y1="144.0336" y2="136.97"/><ellipse cx="211.2433" cy="149.3314" fill="none" rx="4" ry="4" style="stroke:#181818;stroke-width:1;"/><line style="stroke:#181818;stroke-width:1;" x1="128.4923" x2="122.3774" y1="278.0817" y2="272.9234"/><line style="stroke:#181818;stroke-width:1;" x1="130.4266" x2="124.3117" y1="275.7886" y2="270.6303"/><line style="stroke:#181818;stroke-width:1;" x1="128.014" x2="122.8557" y1="272.4451" y2="278.56"/><text fill="#000000" font-family="sans-serif" font-size="13" lengthAdjust="spacing" textLength="46.814" x="182.0557" y="212.1469">chat_id</text></g><!--link UA to M--><g id="link_UA_M"><path codeLine="44" d="M80.3071,177.0999 C84.2071,193.7799 88.7757,202.58 99.0557,216.08 C117.1157,239.8 133.3957,230.9 159.0557,246.08 C176.6257,256.47 188.5945,264.2227 205.0645,275.7127 " fill="none" id="UA-M" style="stroke:#181818;stroke-width:1;"/><line style="stroke:#181818;stroke-width:1;" x1="80.3071" x2="70.6958" y1="177.0999" y2="169.31"/><line style="stroke:#181818;stroke-width:1;" x1="80.3071" x2="86.2756" y1="177.0999" y2="169.31"/><line style="stroke:#181818;stroke-width:1;" x1="80.3071" x2="78.4857" y1="177.0999" y2="169.31"/><line style="stroke:#181818;stroke-width:1;" x1="210.6337" x2="206.0565" y1="274.7208" y2="281.2819"/><line style="stroke:#181818;stroke-width:1;" x1="208.1733" x2="203.596" y1="273.0043" y2="279.5655"/><line style="stroke:#181818;stroke-width:1;" x1="205.0645" x2="211.6257" y1="275.7127" y2="280.29"/><text fill="#000000" font-family="sans-serif" font-size="13" lengthAdjust="spacing" textLength="62.9688" x="100.0557" y="212.1469">sender_id</text></g><!--link CH to M--><g id="link_CH_M"><path codeLine="45" d="M252.0103,144.7146 C255.1703,163.9846 257.1357,178.58 259.0557,199.08 C260.4657,214.09 261.0784,222.2163 261.6884,237.5863 " fill="none" id="CH-M" style="stroke:#181818;stroke-width:1;"/><line style="stroke:#181818;stroke-width:1;" x1="252.0103" x2="242.8211" y1="144.7146" y2="136.82"/><line style="stroke:#181818;stroke-width:1;" x1="252.0103" x2="258.6102" y1="144.7146" y2="136.82"/><line style="stroke:#181818;stroke-width:1;" x1="252.0103" x2="250.7157" y1="144.7146" y2="136.82"/><line style="stroke:#181818;stroke-width:1;" x1="265.8439" x2="257.8502" y1="241.4245" y2="241.7418"/><line style="stroke:#181818;stroke-width:1;" x1="265.7249" x2="257.7312" y1="238.4269" y2="238.7441"/><line style="stroke:#181818;stroke-width:1;" x1="261.6884" x2="262.0057" y1="237.5863" y2="245.58"/><text fill="#000000" font-family="sans-serif" font-size="13" lengthAdjust="spacing" textLength="46.814" x="261.0557" y="212.1469">chat_id</text></g><!--SRC=[XL6x3i8m3Dpp5LON9AJ-01jYW8K5YHbPZKKZqQIgZH02_XtdKLuTMEAJS-UxEEJ5oHMgCzDmmAO9PozS0JBibt0p07DmLajTw-6n8osHMo1rw4vQUsI-X24ocu5Go2ubCdjRyCCOAbPDYtA8CxBFQbzyKZ-PpPD5n3-oejXCalqrxOWPZvG7RAVwu4MfYfYypTxmaUZ_V7SSK5pmnM4ziH2d6GIxVboagcUmerEMjQvdepj_XBg-t-DM5kLNdAsCFldheYIhaYBrjx7z2fyLxukH_mG0]--></g></svg>