<svg xmlns="http://www.w3.org/2000/svg" xmlns:xlink="http://www.w3.org/1999/xlink" contentStyleType="text/css" height="572px" preserveAspectRatio="none" style="width:186px;height:572px;background:#FFFFFF;" version="1.1" viewBox="0 0 186 572" width="186px" zoomAndPan="magnify"><defs/><g><!--class Users--><g id="elem_Users"><rect codeLine="1" fill="#F1F1F1" height="145.7813" id="Users" rx="2.5" ry="2.5" style="stroke:#181818;stroke-width:0.5;" width="137.3506" x="15.5" y="7"/><ellipse cx="60.3232" cy="23" fill="#ADD1B2" rx="11" ry="11" style="stroke:#181818;stroke-width:1.0;"/><path d="M63.292,28.6406 Q62.7139,28.9375 62.0732,29.0781 Q61.4326,29.2344 60.7295,29.2344 Q58.2295,29.2344 56.9014,27.5938 Q55.5889,25.9375 55.5889,22.8125 Q55.5889,19.6875 56.9014,18.0313 Q58.2295,16.375 60.7295,16.375 Q61.4326,16.375 62.0732,16.5313 Q62.7295,16.6875 63.292,16.9844 L63.292,19.7031 Q62.667,19.125 62.0732,18.8594 Q61.4795,18.5781 60.8545,18.5781 Q59.5107,18.5781 58.8232,19.6563 Q58.1357,20.7188 58.1357,22.8125 Q58.1357,24.9063 58.8232,25.9844 Q59.5107,27.0469 60.8545,27.0469 Q61.4795,27.0469 62.0732,26.7813 Q62.667,26.5 63.292,25.9219 L63.292,28.6406 Z " fill="#000000"/><text fill="#000000" font-family="sans-serif" font-size="14" lengthAdjust="spacing" textLength="39.2041" x="80.8232" y="27.8467">Users</text><line style="stroke:#181818;stroke-width:0.5;" x1="16.5" x2="151.8506" y1="39" y2="39"/><ellipse cx="26.5" cy="52.6484" fill="none" rx="3" ry="3" style="stroke:#038048;stroke-width:1.0;"/><text fill="#000000" font-family="sans-serif" font-size="14" lengthAdjust="spacing" textLength="52.6299" x="35.5" y="55.9951">UUID id</text><ellipse cx="26.5" cy="68.9453" fill="none" rx="3" ry="3" style="stroke:#038048;stroke-width:1.0;"/><text fill="#000000" font-family="sans-serif" font-size="14" lengthAdjust="spacing" textLength="84.3418" x="35.5" y="72.292">string name</text><ellipse cx="26.5" cy="85.2422" fill="none" rx="3" ry="3" style="stroke:#038048;stroke-width:1.0;"/><text fill="#000000" font-family="sans-serif" font-size="14" lengthAdjust="spacing" textLength="83.248" x="35.5" y="88.5889">string email</text><ellipse cx="26.5" cy="101.5391" fill="none" rx="3" ry="3" style="stroke:#038048;stroke-width:1.0;"/><text fill="#000000" font-family="sans-serif" font-size="14" lengthAdjust="spacing" textLength="111.3506" x="35.5" y="104.8857">string password</text><ellipse cx="26.5" cy="117.8359" fill="none" rx="3" ry="3" style="stroke:#038048;stroke-width:1.0;"/><text fill="#000000" font-family="sans-serif" font-size="14" lengthAdjust="spacing" textLength="106.6133" x="35.5" y="121.1826">Date createdAt</text><ellipse cx="26.5" cy="134.1328" fill="none" rx="3" ry="3" style="stroke:#038048;stroke-width:1.0;"/><text fill="#000000" font-family="sans-serif" font-size="14" lengthAdjust="spacing" textLength="111.1934" x="35.5" y="137.4795">Date updatedAt</text><line style="stroke:#181818;stroke-width:0.5;" x1="16.5" x2="151.8506" y1="144.7813" y2="144.7813"/></g><!--class Chat--><g id="elem_Chat"><rect codeLine="10" fill="#F1F1F1" height="113.1875" id="Chat" rx="2.5" ry="2.5" style="stroke:#181818;stroke-width:0.5;" width="137.1934" x="15.5" y="230"/><ellipse cx="63.4883" cy="246" fill="#ADD1B2" rx="11" ry="11" style="stroke:#181818;stroke-width:1.0;"/><path d="M66.457,251.6406 Q65.8789,251.9375 65.2383,252.0781 Q64.5977,252.2344 63.8945,252.2344 Q61.3945,252.2344 60.0664,250.5938 Q58.7539,248.9375 58.7539,245.8125 Q58.7539,242.6875 60.0664,241.0313 Q61.3945,239.375 63.8945,239.375 Q64.5977,239.375 65.2383,239.5313 Q65.8945,239.6875 66.457,239.9844 L66.457,242.7031 Q65.832,242.125 65.2383,241.8594 Q64.6445,241.5781 64.0195,241.5781 Q62.6758,241.5781 61.9883,242.6563 Q61.3008,243.7188 61.3008,245.8125 Q61.3008,247.9063 61.9883,248.9844 Q62.6758,250.0469 64.0195,250.0469 Q64.6445,250.0469 65.2383,249.7813 Q65.832,249.5 66.457,248.9219 L66.457,251.6406 Z " fill="#000000"/><text fill="#000000" font-family="sans-serif" font-size="14" lengthAdjust="spacing" textLength="32.7168" x="83.9883" y="250.8467">Chat</text><line style="stroke:#181818;stroke-width:0.5;" x1="16.5" x2="151.6934" y1="262" y2="262"/><ellipse cx="26.5" cy="275.6484" fill="none" rx="3" ry="3" style="stroke:#038048;stroke-width:1.0;"/><text fill="#000000" font-family="sans-serif" font-size="14" lengthAdjust="spacing" textLength="52.6299" x="35.5" y="278.9951">UUID id</text><ellipse cx="26.5" cy="291.9453" fill="none" rx="3" ry="3" style="stroke:#038048;stroke-width:1.0;"/><text fill="#000000" font-family="sans-serif" font-size="14" lengthAdjust="spacing" textLength="108.917" x="35.5" y="295.292">UUID[] usersIds</text><ellipse cx="26.5" cy="308.2422" fill="none" rx="3" ry="3" style="stroke:#038048;stroke-width:1.0;"/><text fill="#000000" font-family="sans-serif" font-size="14" lengthAdjust="spacing" textLength="106.6133" x="35.5" y="311.5889">Date createdAt</text><ellipse cx="26.5" cy="324.5391" fill="none" rx="3" ry="3" style="stroke:#038048;stroke-width:1.0;"/><text fill="#000000" font-family="sans-serif" font-size="14" lengthAdjust="spacing" textLength="111.1934" x="35.5" y="327.8857">Date updatedAt</text><line style="stroke:#181818;stroke-width:0.5;" x1="16.5" x2="151.6934" y1="335.1875" y2="335.1875"/></g><!--class Message--><g id="elem_Message"><rect codeLine="17" fill="#F1F1F1" height="145.7813" id="Message" rx="2.5" ry="2.5" style="stroke:#181818;stroke-width:0.5;" width="154.3105" x="7" y="420"/><ellipse cx="49.428" cy="436" fill="#ADD1B2" rx="11" ry="11" style="stroke:#181818;stroke-width:1.0;"/><path d="M52.3968,441.6406 Q51.8187,441.9375 51.178,442.0781 Q50.5374,442.2344 49.8343,442.2344 Q47.3343,442.2344 46.0062,440.5938 Q44.6937,438.9375 44.6937,435.8125 Q44.6937,432.6875 46.0062,431.0313 Q47.3343,429.375 49.8343,429.375 Q50.5374,429.375 51.178,429.5313 Q51.8343,429.6875 52.3968,429.9844 L52.3968,432.7031 Q51.7718,432.125 51.178,431.8594 Q50.5843,431.5781 49.9593,431.5781 Q48.6155,431.5781 47.928,432.6563 Q47.2405,433.7188 47.2405,435.8125 Q47.2405,437.9063 47.928,438.9844 Q48.6155,440.0469 49.9593,440.0469 Q50.5843,440.0469 51.178,439.7813 Q51.7718,439.5 52.3968,438.9219 L52.3968,441.6406 Z " fill="#000000"/><text fill="#000000" font-family="sans-serif" font-size="14" lengthAdjust="spacing" textLength="61.3594" x="69.5231" y="440.8467">Message</text><line style="stroke:#181818;stroke-width:0.5;" x1="8" x2="160.3105" y1="452" y2="452"/><ellipse cx="18" cy="465.6484" fill="none" rx="3" ry="3" style="stroke:#038048;stroke-width:1.0;"/><text fill="#000000" font-family="sans-serif" font-size="14" lengthAdjust="spacing" textLength="52.6299" x="27" y="468.9951">UUID id</text><ellipse cx="18" cy="481.9453" fill="none" rx="3" ry="3" style="stroke:#038048;stroke-width:1.0;"/><text fill="#000000" font-family="sans-serif" font-size="14" lengthAdjust="spacing" textLength="100.9053" x="27" y="485.292">UUID senderId</text><ellipse cx="18" cy="498.2422" fill="none" rx="3" ry="3" style="stroke:#038048;stroke-width:1.0;"/><text fill="#000000" font-family="sans-serif" font-size="14" lengthAdjust="spacing" textLength="128.3105" x="27" y="501.5889">UUID[] receiverIds</text><ellipse cx="18" cy="514.5391" fill="none" rx="3" ry="3" style="stroke:#038048;stroke-width:1.0;"/><text fill="#000000" font-family="sans-serif" font-size="14" lengthAdjust="spacing" textLength="98.2393" x="27" y="517.8857">string content</text><ellipse cx="18" cy="530.8359" fill="none" rx="3" ry="3" style="stroke:#038048;stroke-width:1.0;"/><text fill="#000000" font-family="sans-serif" font-size="14" lengthAdjust="spacing" textLength="106.6133" x="27" y="534.1826">Date createdAt</text><ellipse cx="18" cy="547.1328" fill="none" rx="3" ry="3" style="stroke:#038048;stroke-width:1.0;"/><text fill="#000000" font-family="sans-serif" font-size="14" lengthAdjust="spacing" textLength="111.1934" x="27" y="550.4795">Date updatedAt</text><line style="stroke:#181818;stroke-width:0.5;" x1="8" x2="160.3105" y1="557.7813" y2="557.7813"/></g><!--link Users to Chat--><g id="link_Users_Chat"><path codeLine="26" d="M84,153.1 C84,178.28 84,206.15 84,229.79 " fill="none" id="Users-Chat" style="stroke:#181818;stroke-width:1.0;"/><text fill="#000000" font-family="sans-serif" font-size="13" lengthAdjust="spacing" textLength="93.1011" x="85" y="196.0669">participates in</text><text fill="#000000" font-family="sans-serif" font-size="13" lengthAdjust="spacing" textLength="23.0356" x="59.8889" y="172.8658">0..*</text><text fill="#000000" font-family="sans-serif" font-size="13" lengthAdjust="spacing" textLength="23.0356" x="59.5888" y="219.028">1..*</text></g><!--link Chat to Message--><g id="link_Chat_Message"><path codeLine="27" d="M84,343.11 C84,366.77 84,394.66 84,419.87 " fill="none" id="Chat-Message" style="stroke:#181818;stroke-width:1.0;"/><text fill="#000000" font-family="sans-serif" font-size="13" lengthAdjust="spacing" textLength="55.0278" x="85" y="386.0669">contains</text><text fill="#000000" font-family="sans-serif" font-size="13" lengthAdjust="spacing" textLength="8.271" x="75.4925" y="363.3875">1</text><text fill="#000000" font-family="sans-serif" font-size="13" lengthAdjust="spacing" textLength="23.0356" x="59.8544" y="409.0172">0..*</text></g><!--SRC=[dL0n3i8m3Dpp2YiZg8YkR8Wk7HWx8GOhiKgaDgtY50R4tqdILg98844MssUVVHVL83DKJ8xXBY2yDLHLMO3HKyNU6Lk3nPQM2BLecYNKXsMtpitK0Zs1SXI2tljNSEZr13w4K4d3uOB-WuHOdSumH9Mbvd-s7uaPQ_fo09Yi9bU-7NMao5mZpaklghEUhFzDpFZHShlPh2Ha6SWyPSdx3cIFpXjb-a1WC5QAr93vE3koPYTXF4f0Ora-0G00]--></g></svg>